<?xml version="1.0" standalone="no"?>
<!DOCTYPE svg PUBLIC "-//W3C//DTD SVG 20010904//EN"
 "http://www.w3.org/TR/2001/REC-SVG-20010904/DTD/svg10.dtd">
<svg version="1.0" xmlns="http://www.w3.org/2000/svg"
 width="512.000000pt" height="512.000000pt" viewBox="0 0 512.000000 512.000000"
 preserveAspectRatio="xMidYMid meet">
<metadata>
Created by potrace 1.14, written by Peter Selinger 2001-2017
</metadata>
<g transform="translate(0.000000,512.000000) scale(0.100000,-0.100000)"
fill="#000000" stroke="none">
<path d="M1790 5109 c0 -5 5 -7 10 -4 6 3 10 8 10 11 0 2 -4 4 -10 4 -5 0 -10
-5 -10 -11z"/>
<path d="M1991 5103 c31 -40 42 -48 47 -35 2 6 8 12 14 12 6 0 7 -7 4 -16 -4
-11 -2 -15 8 -11 38 15 51 -78 16 -113 -11 -11 -20 -24 -20 -30 0 -16 -18 -11
-29 8 -10 15 -10 15 -11 -3 0 -12 5 -26 12 -33 9 -9 9 -12 -4 -12 -20 0 -12
-49 8 -51 75 -7 72 -9 95 64 14 44 18 77 14 95 -4 15 -9 41 -11 57 -1 17 -7
42 -13 58 -10 26 -14 27 -77 27 -62 0 -65 -1 -53 -17z"/>
<path d="M1860 5059 c0 -5 5 -7 10 -4 6 3 10 8 10 11 0 2 -4 4 -10 4 -5 0 -10
-5 -10 -11z"/>
<path d="M1753 4983 c-3 -10 -8 -22 -11 -28 -3 -5 5 0 17 12 23 25 26 33 11
33 -6 0 -13 -8 -17 -17z"/>
<path d="M1773 4955 c-3 -9 -3 -18 0 -22 10 -10 37 6 37 22 0 20 -29 20 -37 0z"/>
<path d="M1680 4922 c0 -16 6 -36 13 -46 11 -15 17 -16 40 -5 29 13 34 24 16
34 -6 4 -8 14 -5 22 3 8 2 11 -3 8 -5 -3 -12 -1 -16 5 -3 5 -15 10 -26 10 -14
0 -19 -7 -19 -28z"/>
<path d="M1967 4893 c-12 -11 -8 -21 12 -26 14 -3 17 0 14 14 -5 20 -15 24
-26 12z"/>
<path d="M2347 4743 c-13 -13 -6 -59 16 -102 26 -50 47 -67 71 -58 32 12 11
83 -42 140 -27 28 -34 32 -45 20z"/>
<path d="M434 4719 c-14 -16 -16 -24 -7 -37 11 -17 18 -18 62 -8 34 8 36 12
17 41 -20 30 -46 32 -72 4z"/>
<path d="M1933 4704 c-3 -8 -1 -20 6 -27 14 -14 47 15 37 32 -10 16 -36 13
-43 -5z"/>
<path d="M2016 4631 c-32 -35 12 -78 46 -44 16 17 17 20 2 41 -19 27 -26 27
-48 3z"/>
<path d="M2152 4638 c-7 -7 -12 -25 -12 -40 0 -21 5 -28 20 -28 15 0 20 7 20
28 0 38 -13 55 -28 40z"/>
<path d="M437 4623 c-4 -3 -7 -20 -7 -37 0 -21 -9 -40 -29 -59 -40 -37 -32
-64 22 -74 45 -9 59 -32 36 -59 -10 -13 -14 -13 -30 2 -26 23 -51 14 -65 -26
-18 -51 -17 -94 4 -113 26 -24 127 -34 150 -15 9 8 32 21 50 28 29 11 36 11
49 -2 11 -11 12 -21 5 -34 -17 -34 -2 -92 29 -119 28 -23 29 -27 23 -78 -8
-65 3 -89 50 -111 50 -23 74 -20 107 15 24 26 32 29 44 19 8 -7 15 -22 15 -34
0 -27 23 -59 84 -118 43 -43 48 -51 42 -80 -23 -121 -15 -152 45 -184 32 -16
34 -21 18 -44 -8 -13 -12 -12 -26 8 -24 35 -51 29 -59 -14 -7 -36 9 -108 25
-119 5 -3 16 1 24 9 22 22 92 10 105 -18 15 -35 -2 -56 -47 -56 -29 0 -44 -7
-64 -30 -15 -16 -34 -30 -42 -30 -18 0 -35 -31 -35 -64 0 -22 -4 -26 -30 -26
-39 0 -70 -31 -72 -72 -2 -53 3 -92 14 -105 6 -7 8 -29 6 -48 -3 -23 0 -35 8
-35 27 0 31 -54 7 -105 -18 -38 -55 -51 -46 -16 4 16 0 19 -22 16 -15 -1 -31
-8 -35 -14 -14 -23 2 -59 31 -71 15 -7 35 -23 43 -36 9 -13 33 -28 56 -34 46
-12 59 -31 58 -87 0 -51 10 -83 26 -83 10 0 13 -16 12 -57 -1 -53 1 -58 21
-61 14 -2 32 6 45 21 33 34 83 61 102 54 33 -13 12 -67 -26 -67 -10 0 -18 -6
-18 -14 0 -15 20 -26 48 -26 39 -1 98 -81 105 -141 2 -19 9 -44 15 -55 14 -27
19 -120 8 -156 -7 -24 -3 -33 27 -62 20 -19 44 -37 55 -40 10 -4 26 -24 35
-46 16 -42 39 -52 55 -24 5 9 13 16 17 16 16 -1 25 -42 15 -68 -13 -34 -14
-33 15 -44 45 -17 99 -169 88 -247 -4 -28 1 -39 31 -69 29 -29 42 -35 69 -33
19 2 43 -4 57 -14 13 -9 36 -17 50 -17 46 0 95 -25 138 -69 23 -24 42 -48 42
-53 0 -5 8 -8 17 -6 11 2 19 -6 23 -21 4 -16 21 -33 50 -47 46 -23 73 -51 64
-65 -3 -5 -1 -9 3 -9 5 0 17 -13 26 -30 10 -17 25 -30 33 -30 9 0 25 -5 36
-11 20 -11 21 -12 4 -25 -12 -9 -16 -19 -11 -34 7 -23 14 -23 87 -5 20 5 27 1
37 -22 25 -55 94 -153 112 -158 9 -3 20 -19 24 -35 8 -35 69 -100 95 -100 26
0 80 -48 80 -72 0 -25 39 -68 63 -68 9 0 17 -6 17 -13 0 -18 115 -65 175 -71
264 -29 408 -33 685 -22 102 5 233 8 292 7 80 -1 115 2 137 14 17 8 45 15 63
15 49 0 79 20 93 63 7 21 20 46 28 55 8 9 18 27 21 39 9 28 43 38 88 25 38
-10 68 0 68 23 0 8 28 52 63 97 34 46 68 101 75 123 15 51 22 61 49 69 32 10
43 -18 30 -80 -11 -55 -6 -84 16 -84 21 0 50 112 42 159 -5 29 -1 47 16 75 20
34 23 58 30 244 13 312 12 714 -2 761 -9 29 -9 47 -1 68 15 39 9 212 -8 223
-7 4 -25 4 -40 0 -36 -10 -50 4 -50 52 0 30 -5 41 -22 49 -28 13 -78 89 -78
118 0 11 -4 21 -10 21 -12 0 -59 46 -88 88 -16 21 -32 32 -48 32 -20 0 -24 5
-24 30 0 40 -24 51 -73 34 -53 -19 -63 -18 -42 6 17 19 16 20 -9 51 -15 17
-25 36 -23 42 4 14 47 16 75 4 18 -8 26 -8 33 4 13 20 12 25 -15 56 l-24 28
-26 -27 c-30 -33 -47 -29 -72 18 -17 31 -22 33 -52 28 -25 -5 -36 -2 -47 12
-22 29 -18 45 17 81 36 37 32 49 -24 68 -31 9 -33 13 -33 53 0 54 -23 75 -71
66 -22 -4 -40 -1 -56 10 -12 9 -31 16 -41 16 -22 0 -89 34 -105 53 -9 11 -10
27 -2 65 10 44 9 55 -11 96 -34 74 -74 92 -130 59 l-28 -17 -38 41 c-21 23
-51 45 -66 48 -27 7 -41 39 -49 110 -4 41 -32 44 -69 9 -34 -32 -54 -27 -77
19 -7 15 -20 27 -28 27 -8 0 -23 20 -34 45 -11 25 -26 48 -33 51 -14 5 -138
-9 -173 -21 -14 -4 -30 1 -50 18 -16 13 -46 30 -67 36 -21 7 -57 23 -80 35
-23 13 -71 31 -107 40 -36 10 -77 24 -92 32 -19 10 -54 14 -120 12 -83 -3 -93
-1 -90 14 2 13 -4 16 -25 14 -15 -2 -39 2 -53 8 -14 7 -33 11 -42 9 -13 -3
-18 2 -18 16 0 17 6 21 29 21 35 0 46 13 32 39 -16 29 -67 43 -113 30 -30 -8
-43 -7 -55 3 -11 9 -56 12 -172 9 -198 -3 -211 -3 -296 3 -38 2 -164 7 -279
11 -116 3 -214 9 -218 11 -4 3 -8 17 -8 31 0 15 -7 35 -16 45 -10 11 -18 38
-19 71 -4 96 -52 159 -89 118 -21 -23 -20 -40 4 -66 14 -15 21 -39 24 -73 l3
-51 -37 1 c-20 0 -51 -3 -68 -7 -24 -5 -39 -1 -62 15 -18 13 -27 26 -23 33 4
7 -1 6 -11 -2 -10 -9 -15 -23 -12 -34 3 -13 0 -17 -11 -13 -8 3 -28 6 -44 6
-22 0 -32 6 -39 25 -10 27 -25 36 -64 39 -16 0 -29 10 -36 25 -9 20 -7 27 15
47 14 13 25 27 25 32 0 20 -28 32 -59 26 -25 -5 -37 -2 -55 15 -13 13 -46 28
-72 35 -41 10 -49 16 -49 37 0 20 -5 24 -30 24 -28 0 -30 2 -27 35 5 59 -10
94 -31 73z"/>
<path d="M912 4418 c-7 -7 -12 -16 -12 -20 0 -4 -9 -17 -21 -29 -15 -15 -19
-28 -14 -47 8 -32 4 -28 33 -36 19 -6 22 -4 22 19 0 14 -4 35 -10 45 -8 15 -5
19 15 22 14 3 25 2 25 -2 0 -5 9 -6 20 -3 24 6 25 12 4 41 -17 24 -43 29 -62
10z"/>
<path d="M979 4303 c-24 -6 -28 -35 -7 -55 10 -10 18 -15 18 -10 0 4 4 1 8 -5
16 -25 41 8 35 45 -5 32 -14 36 -54 25z"/>
<path d="M2450 4094 c-7 -7 -9 -18 -5 -24 8 -13 55 -13 75 0 13 8 12 10 -2 10
-10 0 -18 4 -18 9 0 15 -39 20 -50 5z"/>
<path d="M2633 4062 c-3 -11 -15 -23 -26 -27 -21 -7 -22 -7 -2 -14 11 -4 37
-15 57 -24 65 -30 88 -20 88 38 0 26 -17 35 -73 42 -32 3 -39 1 -44 -15z"/>
<path d="M3350 3760 c-9 -16 -9 -25 -1 -33 16 -16 46 4 46 29 0 27 -31 29 -45
4z"/>
<path d="M447 3420 c-26 -31 -43 -68 -34 -76 3 -3 23 4 46 16 23 11 41 17 41
13 0 -5 5 -1 9 7 5 8 7 27 4 43 -7 36 -34 35 -66 -3z"/>
<path d="M417 3224 c-4 -4 -7 -17 -7 -28 0 -19 1 -19 17 -3 12 11 14 20 7 27
-6 6 -13 7 -17 4z"/>
<path d="M688 3063 c-7 -10 -22 -18 -32 -18 -38 0 -27 -22 14 -29 23 -4 52
-14 66 -22 26 -18 54 -13 54 10 0 15 -64 76 -80 76 -5 0 -15 -8 -22 -17z"/>
<path d="M400 3037 c0 -20 8 -45 19 -58 19 -23 20 -23 38 -6 17 17 17 19 -2
55 -27 51 -55 55 -55 9z"/>
<path d="M567 3020 c6 -24 26 -21 31 3 2 11 -3 17 -16 17 -15 0 -19 -5 -15
-20z"/>
<path d="M687 2813 c-3 -5 -9 -25 -15 -45 -9 -32 -7 -41 9 -60 l19 -23 20 23
c18 22 19 50 4 100 -4 13 -30 17 -37 5z"/>
<path d="M4395 2730 c-3 -5 -1 -10 4 -10 6 0 11 5 11 10 0 6 -2 10 -4 10 -3 0
-8 -4 -11 -10z"/>
<path d="M4602 2458 c-7 -7 -12 -19 -12 -28 0 -17 30 -50 45 -50 19 0 85 35
85 45 0 5 -22 18 -49 28 -58 20 -54 20 -69 5z"/>
<path d="M1332 1748 c4 -31 64 -65 88 -50 13 8 21 7 32 -5 12 -11 18 -12 23
-3 4 7 -1 14 -14 17 -12 3 -21 11 -21 18 0 12 -72 45 -99 45 -7 0 -11 -9 -9
-22z"/>
<path d="M746 1504 c-13 -34 -5 -67 24 -96 25 -25 33 -28 46 -17 21 18 11 66
-22 100 -32 33 -39 35 -48 13z"/>
<path d="M1062 1173 c-14 -27 4 -75 40 -102 29 -24 31 -24 44 -7 11 16 11 23
-2 48 -8 16 -19 26 -24 23 -6 -4 -10 0 -10 8 0 8 -9 22 -19 31 -18 17 -20 17
-29 -1z"/>
<path d="M1190 1125 c0 -8 5 -15 10 -15 6 0 10 7 10 15 0 8 -4 15 -10 15 -5 0
-10 -7 -10 -15z"/>
<path d="M1977 1133 c-4 -3 -7 -16 -6 -27 0 -20 1 -20 10 2 10 26 27 25 43 -1
8 -12 7 -23 -3 -39 -14 -23 -14 -23 7 -4 21 18 21 20 5 47 -16 27 -41 37 -56
22z"/>
<path d="M2323 804 c-3 -8 -1 -20 5 -26 8 -8 9 -5 5 11 -7 27 11 27 37 1 11
-11 20 -16 20 -11 0 11 -39 41 -53 41 -4 0 -10 -7 -14 -16z"/>
<path d="M2360 746 c7 -7 13 -7 20 0 6 6 3 10 -10 10 -13 0 -16 -4 -10 -10z"/>
<path d="M2652 488 c-7 -7 -12 -19 -11 -27 0 -10 4 -7 10 7 10 27 23 22 50
-22 10 -17 19 -24 19 -15 0 8 -13 27 -28 42 -22 21 -31 24 -40 15z"/>
<path d="M4321 467 c-33 -17 -49 -43 -34 -58 13 -13 68 12 82 40 17 31 -6 40
-48 18z"/>
</g>
</svg>
